<mxfile host="app.diagrams.net" agent="Mozilla/5.0 (Windows NT 10.0; Win64; x64) AppleWebKit/537.36 (KHTML, like Gecko) Chrome/128.0.0.0 Safari/537.36 OPR/114.0.0.0" version="24.8.4" pages="2">
  <diagram name="Страница — 1" id="M21NXklDKIZin6VjPQCe">
    <mxGraphModel dx="1855" dy="2022" grid="1" gridSize="10" guides="1" tooltips="1" connect="1" arrows="1" fold="1" page="1" pageScale="1" pageWidth="827" pageHeight="1169" math="0" shadow="0">
      <root>
        <mxCell id="0" />
        <mxCell id="1" parent="0" />
        <mxCell id="OoD30ad0DL97cqk2dW1_-1" value="Пользователь" style="swimlane;fontStyle=0;childLayout=stackLayout;horizontal=1;startSize=26;horizontalStack=0;resizeParent=1;resizeParentMax=0;resizeLast=0;collapsible=1;marginBottom=0;align=center;fontSize=14;" vertex="1" parent="1">
          <mxGeometry y="41" width="160" height="86" as="geometry" />
        </mxCell>
        <mxCell id="OoD30ad0DL97cqk2dW1_-2" value="*Почта пользователя" style="text;strokeColor=none;fillColor=none;align=left;verticalAlign=middle;spacingLeft=4;spacingRight=4;overflow=hidden;points=[[0,0.5],[1,0.5]];portConstraint=eastwest;rotatable=0;whiteSpace=wrap;html=1;" vertex="1" parent="OoD30ad0DL97cqk2dW1_-1">
          <mxGeometry y="26" width="160" height="30" as="geometry" />
        </mxCell>
        <mxCell id="OoD30ad0DL97cqk2dW1_-3" value="Пароль" style="text;strokeColor=none;fillColor=none;spacingLeft=4;spacingRight=4;overflow=hidden;rotatable=0;points=[[0,0.5],[1,0.5]];portConstraint=eastwest;fontSize=12;whiteSpace=wrap;html=1;" vertex="1" parent="OoD30ad0DL97cqk2dW1_-1">
          <mxGeometry y="56" width="160" height="30" as="geometry" />
        </mxCell>
        <mxCell id="OoD30ad0DL97cqk2dW1_-4" value="Очередь" style="swimlane;fontStyle=0;childLayout=stackLayout;horizontal=1;startSize=26;horizontalStack=0;resizeParent=1;resizeParentMax=0;resizeLast=0;collapsible=1;marginBottom=0;align=center;fontSize=14;" vertex="1" parent="1">
          <mxGeometry x="900" y="-1" width="200" height="194" as="geometry" />
        </mxCell>
        <mxCell id="OoD30ad0DL97cqk2dW1_-5" value="*ID очереди" style="text;strokeColor=none;fillColor=none;spacingLeft=4;spacingRight=4;overflow=hidden;rotatable=0;points=[[0,0.5],[1,0.5]];portConstraint=eastwest;fontSize=12;whiteSpace=wrap;html=1;" vertex="1" parent="OoD30ad0DL97cqk2dW1_-4">
          <mxGeometry y="26" width="200" height="30" as="geometry" />
        </mxCell>
        <mxCell id="OoD30ad0DL97cqk2dW1_-6" value="Название очереди" style="text;strokeColor=none;fillColor=none;spacingLeft=4;spacingRight=4;overflow=hidden;rotatable=0;points=[[0,0.5],[1,0.5]];portConstraint=eastwest;fontSize=12;whiteSpace=wrap;html=1;" vertex="1" parent="OoD30ad0DL97cqk2dW1_-4">
          <mxGeometry y="56" width="200" height="30" as="geometry" />
        </mxCell>
        <mxCell id="OoD30ad0DL97cqk2dW1_-7" value="Дата создания очереди" style="text;strokeColor=none;fillColor=none;spacingLeft=4;spacingRight=4;overflow=hidden;rotatable=0;points=[[0,0.5],[1,0.5]];portConstraint=eastwest;fontSize=12;whiteSpace=wrap;html=1;" vertex="1" parent="OoD30ad0DL97cqk2dW1_-4">
          <mxGeometry y="86" width="200" height="30" as="geometry" />
        </mxCell>
        <mxCell id="OoD30ad0DL97cqk2dW1_-8" value="Доступное количество записей" style="text;strokeColor=none;fillColor=none;spacingLeft=4;spacingRight=4;overflow=hidden;rotatable=0;points=[[0,0.5],[1,0.5]];portConstraint=eastwest;fontSize=12;whiteSpace=wrap;html=1;" vertex="1" parent="OoD30ad0DL97cqk2dW1_-4">
          <mxGeometry y="116" width="200" height="26" as="geometry" />
        </mxCell>
        <mxCell id="OoD30ad0DL97cqk2dW1_-9" value="Время окончания ввода записей" style="text;strokeColor=none;fillColor=none;spacingLeft=4;spacingRight=4;overflow=hidden;rotatable=0;points=[[0,0.5],[1,0.5]];portConstraint=eastwest;fontSize=12;whiteSpace=wrap;html=1;" vertex="1" parent="OoD30ad0DL97cqk2dW1_-4">
          <mxGeometry y="142" width="200" height="26" as="geometry" />
        </mxCell>
        <mxCell id="OoD30ad0DL97cqk2dW1_-10" value="Время удаления&amp;nbsp; очереди" style="text;strokeColor=none;fillColor=none;spacingLeft=4;spacingRight=4;overflow=hidden;rotatable=0;points=[[0,0.5],[1,0.5]];portConstraint=eastwest;fontSize=12;whiteSpace=wrap;html=1;" vertex="1" parent="OoD30ad0DL97cqk2dW1_-4">
          <mxGeometry y="168" width="200" height="26" as="geometry" />
        </mxCell>
        <mxCell id="OoD30ad0DL97cqk2dW1_-11" value="Запись в очереди" style="swimlane;fontStyle=0;childLayout=stackLayout;horizontal=1;startSize=26;horizontalStack=0;resizeParent=1;resizeParentMax=0;resizeLast=0;collapsible=1;marginBottom=0;align=center;fontSize=14;" vertex="1" parent="1">
          <mxGeometry x="564" y="440" width="260" height="116" as="geometry" />
        </mxCell>
        <mxCell id="OoD30ad0DL97cqk2dW1_-12" value="*ID записи" style="text;strokeColor=none;fillColor=none;spacingLeft=4;spacingRight=4;overflow=hidden;rotatable=0;points=[[0,0.5],[1,0.5]];portConstraint=eastwest;fontSize=12;whiteSpace=wrap;html=1;" vertex="1" parent="OoD30ad0DL97cqk2dW1_-11">
          <mxGeometry y="26" width="260" height="30" as="geometry" />
        </mxCell>
        <mxCell id="OoD30ad0DL97cqk2dW1_-13" value="Тема записи" style="text;strokeColor=none;fillColor=none;spacingLeft=4;spacingRight=4;overflow=hidden;rotatable=0;points=[[0,0.5],[1,0.5]];portConstraint=eastwest;fontSize=12;whiteSpace=wrap;html=1;" vertex="1" parent="OoD30ad0DL97cqk2dW1_-11">
          <mxGeometry y="56" width="260" height="30" as="geometry" />
        </mxCell>
        <mxCell id="OoD30ad0DL97cqk2dW1_-14" value="Дата создания записи" style="text;strokeColor=none;fillColor=none;spacingLeft=4;spacingRight=4;overflow=hidden;rotatable=0;points=[[0,0.5],[1,0.5]];portConstraint=eastwest;fontSize=12;whiteSpace=wrap;html=1;" vertex="1" parent="OoD30ad0DL97cqk2dW1_-11">
          <mxGeometry y="86" width="260" height="30" as="geometry" />
        </mxCell>
        <mxCell id="OoD30ad0DL97cqk2dW1_-15" value="Комментарий к записи" style="swimlane;fontStyle=0;childLayout=stackLayout;horizontal=1;startSize=26;horizontalStack=0;resizeParent=1;resizeParentMax=0;resizeLast=0;collapsible=1;marginBottom=0;align=center;fontSize=14;" vertex="1" parent="1">
          <mxGeometry x="905" y="550" width="190" height="86" as="geometry" />
        </mxCell>
        <mxCell id="OoD30ad0DL97cqk2dW1_-16" value="Текст комментария" style="text;strokeColor=none;fillColor=none;spacingLeft=4;spacingRight=4;overflow=hidden;rotatable=0;points=[[0,0.5],[1,0.5]];portConstraint=eastwest;fontSize=12;whiteSpace=wrap;html=1;" vertex="1" parent="OoD30ad0DL97cqk2dW1_-15">
          <mxGeometry y="26" width="190" height="30" as="geometry" />
        </mxCell>
        <mxCell id="OoD30ad0DL97cqk2dW1_-17" value="Дата создания комментария" style="text;strokeColor=none;fillColor=none;spacingLeft=4;spacingRight=4;overflow=hidden;rotatable=0;points=[[0,0.5],[1,0.5]];portConstraint=eastwest;fontSize=12;whiteSpace=wrap;html=1;" vertex="1" parent="OoD30ad0DL97cqk2dW1_-15">
          <mxGeometry y="56" width="190" height="30" as="geometry" />
        </mxCell>
        <mxCell id="OoD30ad0DL97cqk2dW1_-18" value="Файл к записи" style="swimlane;fontStyle=0;childLayout=stackLayout;horizontal=1;startSize=26;horizontalStack=0;resizeParent=1;resizeParentMax=0;resizeLast=0;collapsible=1;marginBottom=0;align=center;fontSize=14;" vertex="1" parent="1">
          <mxGeometry x="310" y="455" width="160" height="86" as="geometry" />
        </mxCell>
        <mxCell id="OoD30ad0DL97cqk2dW1_-19" value="Название файла" style="text;strokeColor=none;fillColor=none;spacingLeft=4;spacingRight=4;overflow=hidden;rotatable=0;points=[[0,0.5],[1,0.5]];portConstraint=eastwest;fontSize=12;whiteSpace=wrap;html=1;" vertex="1" parent="OoD30ad0DL97cqk2dW1_-18">
          <mxGeometry y="26" width="160" height="30" as="geometry" />
        </mxCell>
        <mxCell id="OoD30ad0DL97cqk2dW1_-20" value="Путь к файлу на сервере" style="text;strokeColor=none;fillColor=none;spacingLeft=4;spacingRight=4;overflow=hidden;rotatable=0;points=[[0,0.5],[1,0.5]];portConstraint=eastwest;fontSize=12;whiteSpace=wrap;html=1;" vertex="1" parent="OoD30ad0DL97cqk2dW1_-18">
          <mxGeometry y="56" width="160" height="30" as="geometry" />
        </mxCell>
        <mxCell id="OoD30ad0DL97cqk2dW1_-21" value="История очереди" style="swimlane;fontStyle=0;childLayout=stackLayout;horizontal=1;startSize=26;horizontalStack=0;resizeParent=1;resizeParentMax=0;resizeLast=0;collapsible=1;marginBottom=0;align=center;fontSize=14;" vertex="1" parent="1">
          <mxGeometry x="1210" y="60" width="290" height="86" as="geometry" />
        </mxCell>
        <mxCell id="OoD30ad0DL97cqk2dW1_-22" value="Тип действия(удаление/добавление/изменения)" style="text;strokeColor=none;fillColor=none;spacingLeft=4;spacingRight=4;overflow=hidden;rotatable=0;points=[[0,0.5],[1,0.5]];portConstraint=eastwest;fontSize=12;whiteSpace=wrap;html=1;" vertex="1" parent="OoD30ad0DL97cqk2dW1_-21">
          <mxGeometry y="26" width="290" height="30" as="geometry" />
        </mxCell>
        <mxCell id="OoD30ad0DL97cqk2dW1_-23" value="Дата изменения" style="text;strokeColor=none;fillColor=none;spacingLeft=4;spacingRight=4;overflow=hidden;rotatable=0;points=[[0,0.5],[1,0.5]];portConstraint=eastwest;fontSize=12;whiteSpace=wrap;html=1;" vertex="1" parent="OoD30ad0DL97cqk2dW1_-21">
          <mxGeometry y="56" width="290" height="30" as="geometry" />
        </mxCell>
        <mxCell id="OoD30ad0DL97cqk2dW1_-24" value="" style="edgeStyle=entityRelationEdgeStyle;fontSize=12;html=1;endArrow=ERmany;rounded=0;" edge="1" parent="1" source="OoD30ad0DL97cqk2dW1_-8" target="OoD30ad0DL97cqk2dW1_-11">
          <mxGeometry width="100" height="100" relative="1" as="geometry">
            <mxPoint x="740" y="560" as="sourcePoint" />
            <mxPoint x="840" y="460" as="targetPoint" />
          </mxGeometry>
        </mxCell>
        <mxCell id="OoD30ad0DL97cqk2dW1_-25" value="" style="edgeStyle=entityRelationEdgeStyle;fontSize=12;html=1;endArrow=ERmany;rounded=0;" edge="1" parent="1" source="OoD30ad0DL97cqk2dW1_-11" target="OoD30ad0DL97cqk2dW1_-18">
          <mxGeometry width="100" height="100" relative="1" as="geometry">
            <mxPoint x="490" y="385" as="sourcePoint" />
            <mxPoint x="590" y="285" as="targetPoint" />
            <Array as="points">
              <mxPoint x="-190" y="145" />
            </Array>
          </mxGeometry>
        </mxCell>
        <mxCell id="OoD30ad0DL97cqk2dW1_-26" value="*" style="text;html=1;align=center;verticalAlign=middle;whiteSpace=wrap;rounded=0;" vertex="1" parent="1">
          <mxGeometry x="470" y="475" width="60" height="30" as="geometry" />
        </mxCell>
        <mxCell id="OoD30ad0DL97cqk2dW1_-27" value="*" style="text;html=1;align=center;verticalAlign=middle;whiteSpace=wrap;rounded=0;" vertex="1" parent="1">
          <mxGeometry x="1170" y="81" width="60" height="30" as="geometry" />
        </mxCell>
        <mxCell id="OoD30ad0DL97cqk2dW1_-28" value="*" style="text;html=1;align=center;verticalAlign=middle;whiteSpace=wrap;rounded=0;" vertex="1" parent="1">
          <mxGeometry x="860" y="570" width="60" height="30" as="geometry" />
        </mxCell>
        <mxCell id="OoD30ad0DL97cqk2dW1_-29" value="*" style="text;html=1;align=center;verticalAlign=middle;whiteSpace=wrap;rounded=0;" vertex="1" parent="1">
          <mxGeometry x="810" y="475" width="60" height="30" as="geometry" />
        </mxCell>
        <mxCell id="OoD30ad0DL97cqk2dW1_-30" value="" style="edgeStyle=entityRelationEdgeStyle;fontSize=12;html=1;endArrow=ERmany;rounded=0;" edge="1" parent="1" source="OoD30ad0DL97cqk2dW1_-13" target="OoD30ad0DL97cqk2dW1_-15">
          <mxGeometry width="100" height="100" relative="1" as="geometry">
            <mxPoint x="870" y="515" as="sourcePoint" />
            <mxPoint x="970" y="415" as="targetPoint" />
          </mxGeometry>
        </mxCell>
        <mxCell id="OoD30ad0DL97cqk2dW1_-31" value="" style="edgeStyle=entityRelationEdgeStyle;fontSize=12;html=1;endArrow=ERmany;rounded=0;" edge="1" parent="1" source="OoD30ad0DL97cqk2dW1_-4" target="OoD30ad0DL97cqk2dW1_-21">
          <mxGeometry width="100" height="100" relative="1" as="geometry">
            <mxPoint x="1130" y="130" as="sourcePoint" />
            <mxPoint x="1230" y="30" as="targetPoint" />
          </mxGeometry>
        </mxCell>
        <mxCell id="OoD30ad0DL97cqk2dW1_-32" value="Комната" style="swimlane;fontStyle=0;childLayout=stackLayout;horizontal=1;startSize=30;horizontalStack=0;resizeParent=1;resizeParentMax=0;resizeLast=0;collapsible=1;marginBottom=0;whiteSpace=wrap;html=1;" vertex="1" parent="1">
          <mxGeometry x="580" y="10" width="200" height="120" as="geometry" />
        </mxCell>
        <mxCell id="OoD30ad0DL97cqk2dW1_-33" value="*ID комнаты" style="text;strokeColor=none;fillColor=none;spacingLeft=4;spacingRight=4;overflow=hidden;rotatable=0;points=[[0,0.5],[1,0.5]];portConstraint=eastwest;fontSize=12;whiteSpace=wrap;html=1;" vertex="1" parent="OoD30ad0DL97cqk2dW1_-32">
          <mxGeometry y="30" width="200" height="30" as="geometry" />
        </mxCell>
        <mxCell id="OoD30ad0DL97cqk2dW1_-34" value="Название комнаты" style="text;strokeColor=none;fillColor=none;align=left;verticalAlign=middle;spacingLeft=4;spacingRight=4;overflow=hidden;points=[[0,0.5],[1,0.5]];portConstraint=eastwest;rotatable=0;whiteSpace=wrap;html=1;" vertex="1" parent="OoD30ad0DL97cqk2dW1_-32">
          <mxGeometry y="60" width="200" height="30" as="geometry" />
        </mxCell>
        <mxCell id="OoD30ad0DL97cqk2dW1_-35" value="Пароль комнаты" style="text;strokeColor=none;fillColor=none;spacingLeft=4;spacingRight=4;overflow=hidden;rotatable=0;points=[[0,0.5],[1,0.5]];portConstraint=eastwest;fontSize=12;whiteSpace=wrap;html=1;" vertex="1" parent="OoD30ad0DL97cqk2dW1_-32">
          <mxGeometry y="90" width="200" height="30" as="geometry" />
        </mxCell>
        <mxCell id="OoD30ad0DL97cqk2dW1_-36" value="" style="edgeStyle=entityRelationEdgeStyle;fontSize=12;html=1;endArrow=ERmany;rounded=0;" edge="1" parent="1" source="OoD30ad0DL97cqk2dW1_-32" target="OoD30ad0DL97cqk2dW1_-4">
          <mxGeometry width="100" height="100" relative="1" as="geometry">
            <mxPoint x="730" y="240" as="sourcePoint" />
            <mxPoint x="760" y="90" as="targetPoint" />
            <Array as="points">
              <mxPoint x="600" y="200" />
            </Array>
          </mxGeometry>
        </mxCell>
        <mxCell id="OoD30ad0DL97cqk2dW1_-37" value="Роли&amp;nbsp;" style="swimlane;fontStyle=0;childLayout=stackLayout;horizontal=1;startSize=30;horizontalStack=0;resizeParent=1;resizeParentMax=0;resizeLast=0;collapsible=1;marginBottom=0;whiteSpace=wrap;html=1;" vertex="1" parent="1">
          <mxGeometry x="624" y="200" width="140" height="60" as="geometry" />
        </mxCell>
        <mxCell id="OoD30ad0DL97cqk2dW1_-38" value="*Название роли" style="text;strokeColor=none;fillColor=none;align=left;verticalAlign=middle;spacingLeft=4;spacingRight=4;overflow=hidden;points=[[0,0.5],[1,0.5]];portConstraint=eastwest;rotatable=0;whiteSpace=wrap;html=1;" vertex="1" parent="OoD30ad0DL97cqk2dW1_-37">
          <mxGeometry y="30" width="140" height="30" as="geometry" />
        </mxCell>
        <mxCell id="OoD30ad0DL97cqk2dW1_-39" value="Участик комнаты" style="swimlane;fontStyle=0;childLayout=stackLayout;horizontal=1;startSize=30;horizontalStack=0;resizeParent=1;resizeParentMax=0;resizeLast=0;collapsible=1;marginBottom=0;whiteSpace=wrap;html=1;" vertex="1" parent="1">
          <mxGeometry x="289" y="51" width="140" height="60" as="geometry" />
        </mxCell>
        <mxCell id="OoD30ad0DL97cqk2dW1_-40" value="Имя пользователя в комнате" style="text;strokeColor=none;fillColor=none;align=left;verticalAlign=middle;spacingLeft=4;spacingRight=4;overflow=hidden;points=[[0,0.5],[1,0.5]];portConstraint=eastwest;rotatable=0;whiteSpace=wrap;html=1;" vertex="1" parent="OoD30ad0DL97cqk2dW1_-39">
          <mxGeometry y="30" width="140" height="30" as="geometry" />
        </mxCell>
        <mxCell id="OoD30ad0DL97cqk2dW1_-41" value="" style="fontSize=12;html=1;endArrow=ERmany;rounded=0;entryX=1;entryY=0.75;entryDx=0;entryDy=0;edgeStyle=orthogonalEdgeStyle;curved=1;" edge="1" parent="1" source="OoD30ad0DL97cqk2dW1_-37" target="OoD30ad0DL97cqk2dW1_-39">
          <mxGeometry width="100" height="100" relative="1" as="geometry">
            <mxPoint x="230" y="246" as="sourcePoint" />
            <mxPoint x="520" y="160" as="targetPoint" />
          </mxGeometry>
        </mxCell>
        <mxCell id="OoD30ad0DL97cqk2dW1_-42" value="" style="edgeStyle=entityRelationEdgeStyle;fontSize=12;html=1;endArrow=ERmany;rounded=0;" edge="1" parent="1" source="OoD30ad0DL97cqk2dW1_-32" target="OoD30ad0DL97cqk2dW1_-39">
          <mxGeometry width="100" height="100" relative="1" as="geometry">
            <mxPoint x="320" y="230" as="sourcePoint" />
            <mxPoint x="420" y="130" as="targetPoint" />
            <Array as="points">
              <mxPoint x="-360" y="-10" />
            </Array>
          </mxGeometry>
        </mxCell>
        <mxCell id="OoD30ad0DL97cqk2dW1_-43" value="" style="edgeStyle=entityRelationEdgeStyle;fontSize=12;html=1;endArrow=ERmany;rounded=0;" edge="1" parent="1" source="OoD30ad0DL97cqk2dW1_-1" target="OoD30ad0DL97cqk2dW1_-39">
          <mxGeometry width="100" height="100" relative="1" as="geometry">
            <mxPoint x="260" y="160" as="sourcePoint" />
            <mxPoint x="360" y="60" as="targetPoint" />
            <Array as="points">
              <mxPoint x="-420" y="-80" />
            </Array>
          </mxGeometry>
        </mxCell>
        <mxCell id="OoD30ad0DL97cqk2dW1_-44" value="*" style="text;html=1;align=center;verticalAlign=middle;whiteSpace=wrap;rounded=0;" vertex="1" parent="1">
          <mxGeometry x="414" y="60" width="60" height="30" as="geometry" />
        </mxCell>
        <mxCell id="OoD30ad0DL97cqk2dW1_-45" value="*" style="text;html=1;align=center;verticalAlign=middle;whiteSpace=wrap;rounded=0;" vertex="1" parent="1">
          <mxGeometry x="240" y="60" width="60" height="30" as="geometry" />
        </mxCell>
        <mxCell id="OoD30ad0DL97cqk2dW1_-46" value="*" style="text;html=1;align=center;verticalAlign=middle;whiteSpace=wrap;rounded=0;" vertex="1" parent="1">
          <mxGeometry x="429" y="88.5" width="30" height="15" as="geometry" />
        </mxCell>
        <mxCell id="OoD30ad0DL97cqk2dW1_-47" value="*" style="text;html=1;align=center;verticalAlign=middle;whiteSpace=wrap;rounded=0;" vertex="1" parent="1">
          <mxGeometry x="870" y="79.5" width="30" height="15" as="geometry" />
        </mxCell>
        <mxCell id="OoD30ad0DL97cqk2dW1_-48" value="" style="edgeStyle=elbowEdgeStyle;fontSize=12;html=1;endArrow=ERmany;rounded=0;exitX=0.75;exitY=0;exitDx=0;exitDy=0;elbow=vertical;entryX=0.5;entryY=0;entryDx=0;entryDy=0;" edge="1" parent="1" source="OoD30ad0DL97cqk2dW1_-1" target="OoD30ad0DL97cqk2dW1_-32">
          <mxGeometry width="100" height="100" relative="1" as="geometry">
            <mxPoint x="370" y="250" as="sourcePoint" />
            <mxPoint x="590" y="-140" as="targetPoint" />
            <Array as="points">
              <mxPoint x="400" y="-130" />
            </Array>
          </mxGeometry>
        </mxCell>
        <mxCell id="OoD30ad0DL97cqk2dW1_-49" value="" style="edgeStyle=elbowEdgeStyle;fontSize=12;html=1;endArrow=ERmany;rounded=0;exitX=0.352;exitY=-0.023;exitDx=0;exitDy=0;elbow=vertical;entryX=0.5;entryY=0;entryDx=0;entryDy=0;exitPerimeter=0;" edge="1" parent="1" source="OoD30ad0DL97cqk2dW1_-1" target="OoD30ad0DL97cqk2dW1_-21">
          <mxGeometry width="100" height="100" relative="1" as="geometry">
            <mxPoint x="130" y="51" as="sourcePoint" />
            <mxPoint x="690" y="20" as="targetPoint" />
            <Array as="points">
              <mxPoint x="710" y="-160" />
            </Array>
          </mxGeometry>
        </mxCell>
        <mxCell id="OoD30ad0DL97cqk2dW1_-50" value="" style="edgeStyle=elbowEdgeStyle;fontSize=12;html=1;endArrow=ERmany;rounded=0;exitX=0.179;exitY=1.196;exitDx=0;exitDy=0;exitPerimeter=0;elbow=vertical;" edge="1" parent="1" source="OoD30ad0DL97cqk2dW1_-3" target="OoD30ad0DL97cqk2dW1_-17">
          <mxGeometry width="100" height="100" relative="1" as="geometry">
            <mxPoint x="610" y="420" as="sourcePoint" />
            <mxPoint x="290" y="800" as="targetPoint" />
            <Array as="points">
              <mxPoint x="170" y="760" />
            </Array>
          </mxGeometry>
        </mxCell>
        <mxCell id="OoD30ad0DL97cqk2dW1_-51" value="" style="edgeStyle=elbowEdgeStyle;fontSize=12;html=1;endArrow=ERmany;rounded=0;entryX=0.5;entryY=0;entryDx=0;entryDy=0;exitX=0.774;exitY=0.976;exitDx=0;exitDy=0;elbow=vertical;exitPerimeter=0;" edge="1" parent="1" source="OoD30ad0DL97cqk2dW1_-3" target="OoD30ad0DL97cqk2dW1_-11">
          <mxGeometry width="100" height="100" relative="1" as="geometry">
            <mxPoint x="270" y="350" as="sourcePoint" />
            <mxPoint x="370" y="250" as="targetPoint" />
          </mxGeometry>
        </mxCell>
      </root>
    </mxGraphModel>
  </diagram>
  <diagram id="euNZU0s5SmwI5rKzvyMw" name="Страница — 2">
    <mxGraphModel dx="2024" dy="931" grid="1" gridSize="10" guides="1" tooltips="1" connect="1" arrows="1" fold="1" page="1" pageScale="1" pageWidth="827" pageHeight="1169" math="0" shadow="0">
      <root>
        <mxCell id="0" />
        <mxCell id="1" parent="0" />
      </root>
    </mxGraphModel>
  </diagram>
</mxfile>
